:SAMPLES-PER-SECOND 30
:FULLY-SPECIFIED
:DEGREES
520
root  74.0161 39.5989 1.50502 -112.942 85.5881 -117.944
RightUpLeg  -6.85424 -2.34648 2.85252
RightLeg  -0.907794 15.1701 -1.90328
RightFoot  3.17928 -0.888048 7.16616
RightToes  -8.73116e-010 0 -3.6325e-017
Spine  35.6241 -4.80208 36.4695
Spine1  -29.9527 0.984354 -49.8558
HEad  -153.263 18.7283 25.6528
LeftShoulder1  167.977 -43.4881 -161.968
LeftArm  -68.1001 64.8354 -9.99938
LeftForeArm  -68.3886 -66.9366 -161.757
LeftHand  -4.21431 3.99434 138.882
RightShoulder  5.81923 -38.3282 -27.6614
RightArm  -103.398 -24.3818 -179.066
RightForeArm  47.7994 61.7294 155.243
RightHand  -117.948 76.5756 -128.756
LeftUpLeg  -13.5905 9.21214 5.64958
LeftLeg  3.60308 -21.2233 -4.47298
LeftFoot  8.16937 -0.0913957 0.242124
LeftToes  -5.63919e-011 3.32596e-011 1.92487e-011
521
root  74.1415 39.5894 1.24048 -111.195 85.4526 -116.333
RightUpLeg  -7.06203 -2.51347 2.47974
RightLeg  -1.35996 15.183 -1.91492
RightFoot  4.95132 -0.835538 6.05786
RightToes  -8.73116e-010 0 -3.6325e-017
Spine  35.3907 -4.6508 36.6527
Spine1  -29.4979 1.5085 -49.2827
HEad  -153.255 19.1019 24.9404
LeftShoulder1  -120.541 -32.6408 171.643
LeftArm  -155.36 26.5465 -109.018
LeftForeArm  -77.4396 -66.7073 -162.505
LeftHand  -51.9262 -20.3283 129.886
RightShoulder  4.25497 -38.8345 -22.6845
RightArm  -97.8095 -27.1947 175.6
RightForeArm  49.726 58.6785 158.101
RightHand  -145.105 79.1472 -150.999
LeftUpLeg  -13.877 9.39632 5.48078
LeftLeg  4.47192 -21.4373 -4.92723
LeftFoot  7.58784 -0.123209 0.460765
LeftToes  -5.63919e-011 3.32596e-011 1.92487e-011
522
root  74.277 39.5673 0.914397 -106.103 85.7104 -111.952
RightUpLeg  -7.63874 -3.18283 1.70192
RightLeg  -1.20822 16.3636 -1.42446
RightFoot  4.15039 -0.844944 6.41034
RightToes  -8.73116e-010 0 -3.6325e-017
Spine  34.1725 -3.84348 37.9214
Spine1  -27.5591 3.17372 -50.2096
HEad  -154.641 18.6154 23.3377
LeftShoulder1  163.32 -63.2185 -161.87
LeftArm  -82.0714 66.6467 -15.7956
LeftForeArm  -79.8162 -68.746 -160.534
LeftHand  -71.2639 -30.0629 133.652
RightShoulder  2.33813 -39.306 -16.6941
RightArm  -92.1009 -28.6528 168.34
RightForeArm  53.3233 54.8041 161.011
RightHand  -174.13 79.4013 -175.654
LeftUpLeg  -14.477 8.96052 4.86354
LeftLeg  4.71211 -20.5521 -4.83689
LeftFoot  6.92565 -0.201239 0.995747
LeftToes  -5.63919e-011 3.32596e-011 1.92487e-011
523
root  74.3502 39.5019 0.709811 -102.02 85.8379 -108.092
RightUpLeg  -7.89888 -3.51937 1.30863
RightLeg  -0.765391 16.5792 -1.13481
RightFoot  2.78192 -0.793416 6.5621
RightToes  -8.73116e-010 0 -3.6325e-017
Spine  34.3336 -3.64934 37.5647
Spine1  -28.1385 3.09911 -49.4754
HEad  -154.593 19.1582 23.0867
LeftShoulder1  -162.293 -63.2166 179.03
LeftArm  -112.363 53.6778 -55.5777
LeftForeArm  -75.0991 -68.9175 -159.925
LeftHand  -74.3143 -31.3527 134.532
RightShoulder  1.274 -38.0211 -13.6769
RightArm  -87.1567 -29.3724 164.266
RightForeArm  56.573 51.8159 162.813
RightHand  160.452 77.2165 163.43
LeftUpLeg  -15.1018 8.97683 4.44784
LeftLeg  5.97826 -20.0933 -5.13811
LeftFoot  5.68878 -0.305466 1.80615
LeftToes  -5.63919e-011 3.32596e-011 1.92487e-011
524
root  74.4046 39.4634 0.466274 -89.3051 86.2857 -95.8058
RightUpLeg  -8.10555 -3.92387 0.607124
RightLeg  -1.2678 17.1584 -1.02648
RightFoot  1.66288 -0.81444 7.2291
RightToes  -8.73116e-010 0 -3.6325e-017
Spine  34.7076 -3.24006 36.9753
Spine1  -29.1623 3.1431 -48.9108
HEad  -154.336 20.0337 23.3702
LeftShoulder1  -120.286 -58.3812 152.867
LeftArm  -137.96 38.7404 -87.5682
LeftForeArm  -70.1037 -67.0451 -161.67
LeftHand  -88.7906 -37.4916 138.217
RightShoulder  -0.0110684 -36.548 -9.56212
RightArm  -80.8711 -30.5074 159.388
RightForeArm  60.593 49.0854 164.191
RightHand  142.599 73.2664 150.404
LeftUpLeg  -15.54 8.07682 3.70807
LeftLeg  6.26685 -18.1529 -4.57795
LeftFoot  5.17133 -0.375959 2.37353
LeftToes  -5.63919e-011 3.32596e-011 1.92487e-011
525
root  74.5564 39.443 0.248004 -80.071 86.2574 -87.1553
RightUpLeg  -8.13047 -3.76966 0.482485
RightLeg  -2.22292 17.2475 -1.53465
RightFoot  1.79371 -0.786629 6.93561
RightToes  -8.73116e-010 0 -3.6325e-017
Spine  33.7235 -2.77502 37.1047
Spine1  -28.3242 3.76222 -48.8137
HEad  -154.258 20.5643 22.8825
LeftShoulder1  -116.147 -69.0543 142.268
LeftArm  -119.997 39.388 -70.9234
LeftForeArm  -65.4201 -68.4963 -159.62
LeftHand  -90.4713 -37.9739 138.896
RightShoulder  -2.78285 -34.7068 0.055895
RightArm  -72.5099 -31.5683 149.643
RightForeArm  65.9477 45.6148 165.77
RightHand  135.103 70.1228 146.069
LeftUpLeg  -16.0887 7.44292 3.20449
LeftLeg  6.61166 -16.7534 -4.13389
LeftFoot  4.77115 -0.422115 2.77488
LeftToes  -5.63919e-011 3.32596e-011 1.92487e-011
526
root  74.5687 39.4477 0.114718 -69.5662 86.2099 -77.0245
RightUpLeg  -8.65729 -3.83189 0.383656
RightLeg  -2.15036 18.0336 -1.58835
RightFoot  2.38516 -0.735449 6.23532
RightToes  -8.73116e-010 0 -3.6325e-017
Spine  34.4207 -2.59321 36.6039
Spine1  -29.7074 3.3825 -48.2463
HEad  -154.085 21.244 23.15
LeftShoulder1  -88.7297 -68.3442 118.833
LeftArm  -115.503 30.3954 -73.9281
LeftForeArm  -57.9014 -69.0204 -158.117
LeftHand  -82.4876 -36.0761 135.29
RightShoulder  -3.64638 -32.2196 4.26978
RightArm  -66.6655 -31.5834 144.596
RightForeArm  71.5301 43.0844 166.76
RightHand  129.89 66.8298 143.88
LeftUpLeg  -16.3978 7.07307 2.92467
LeftLeg  6.54764 -15.6965 -3.83017
LeftFoot  4.94481 -0.52334 3.44719
LeftToes  -5.63919e-011 3.32596e-011 1.92487e-011
